# xmcd CD database file
#
# Track frame offsets:
#	150
#	18098
#	34189
#	50780
#	69125
#	85260
#	101355
#	117784
#	135876
#	156432
#	174710
#	200862
#
# Disc length: 2686 seconds
#
# Revision: 0
# Processed by: cddbd v1.5.2PL0 Copyright (c) Steve Scherf et al.
# Submitted via: CDex 1.70beta2
#
DISCID=9a0a7c0c
DTITLE=Zucchero - Fly
DYEAR=2006
DGENRE=Blues
TTITLE0=Bacco perbacco
TTITLE1=Un kilo
TTITLE2=Occhi
TTITLE3=Quanti anni ho
TTITLE4=Cuba libre
TTITLE5=E' delicato
TTITLE6=L'amore è nell'aria
TTITLE7=Pronto
TTITLE8=Let it shine
TTITLE9=Troppa fedeltà
TTITLE10=E di grazia piena
TTITLE11=Traccia dati
EXTD=YEAR: 2006
EXTT0=
EXTT1=
EXTT2=
EXTT3=
EXTT4=
EXTT5=
EXTT6=
EXTT7=
EXTT8=
EXTT9=
EXTT10=
EXTT11=
PLAYORDER=
